<svg xmlns="http://www.w3.org/2000/svg"  viewBox="0 0 50 50" width="24px" height="24px"><path d="M 31 0 C 28.238281 0 26 2.238281 26 5 C 26 7.761719 28.238281 10 31 10 C 33.761719 10 36 7.761719 36 5 C 36 2.238281 33.761719 0 31 0 Z M 22.59375 9.09375 C 22.402344 9.097656 22.3125 9.125 22.3125 9.125 C 22.3125 9.125 11.15625 10.488281 7.4375 11.125 C 4.230469 11.675781 4.5625 14.167969 7.4375 14.125 C 10.171875 14.085938 21.4375 14.125 21.4375 14.125 C 21.4375 14.125 13.996094 29.800781 11.875 34.40625 C 11.34375 35.554688 11.621094 37.050781 12.9375 37.625 C 14.542969 38.328125 15.5 37.171875 16.125 36.21875 C 17.023438 34.839844 21.597656 26.851563 21.96875 26.90625 C 22.503906 26.984375 15.289063 45.082031 14.84375 46.59375 C 14.398438 48.105469 14.683594 49.40625 16.125 49.84375 C 18.035156 50.429688 18.738281 49.09375 19.1875 48.03125 C 19.636719 46.96875 31.375 19.1875 31.375 19.1875 C 31.375 19.1875 35.789063 21.253906 37.1875 21.8125 C 38.582031 22.367188 39.332031 21.785156 39.65625 21.5 C 40.476563 20.859375 44.511719 17.871094 45.75 16.8125 C 46.988281 15.753906 48.378906 14.285156 46.96875 12.875 C 46.15625 12.089844 44.875 13.0625 44.875 13.0625 L 38.8125 17.6875 C 38.8125 17.6875 34.492188 14.585938 32.9375 13.6875 C 31.03125 12.589844 26.875 10.347656 25.53125 9.65625 C 24.460938 9.105469 23.171875 9.078125 22.59375 9.09375 Z M 33 40 C 30.238281 40 28 42.238281 28 45 C 28 47.757813 30.238281 50 33 50 C 35.761719 50 38 47.757813 38 45 C 38 42.238281 35.761719 40 33 40 Z"/></svg>